<svg id="svg" version="1.1" xmlns="http://www.w3.org/2000/svg" xmlns:xlink="http://www.w3.org/1999/xlink" width="400"
  height="400" viewBox="0, 0, 400,400">
  <path
    d="M39.453 198.145 L 39.453 330.469 62.694 330.469 L 85.934 330.469 86.034 284.863 L 86.133 239.258 92.610 248.828 C 100.559 260.572,108.976 273.062,139.072 317.773 L 147.486 330.273 175.132 330.374 L 202.778 330.474 199.533 325.794 C 197.749 323.220,188.889 310.518,179.845 297.568 C 153.011 259.147,134.539 232.648,134.245 232.155 C 134.080 231.876,137.832 226.893,143.658 219.655 C 148.986 213.034,159.746 199.619,167.570 189.844 C 175.394 180.068,185.392 167.588,189.789 162.109 C 194.186 156.631,197.952 151.929,198.158 151.660 C 198.457 151.271,192.922 151.172,170.781 151.172 L 143.029 151.172 118.304 183.496 C 104.705 201.274,91.904 218.018,89.856 220.703 L 86.133 225.586 86.034 145.807 L 85.936 66.028 62.694 65.924 L 39.453 65.820 39.453 198.145 M272.852 146.896 C 238.795 150.220,215.953 172.362,215.981 202.023 C 216.010 232.797,232.076 248.885,270.898 257.019 C 307.876 264.766,312.744 267.204,312.663 277.930 C 312.578 289.129,307.275 292.965,290.971 293.618 C 270.636 294.434,253.145 287.900,238.838 274.142 L 236.075 271.485 228.066 280.372 C 223.662 285.259,217.435 292.133,214.228 295.648 C 211.022 299.162,208.235 302.264,208.036 302.540 C 207.475 303.318,215.753 310.943,222.070 315.467 C 243.484 330.803,273.789 337.067,304.883 332.584 C 343.841 326.967,364.578 303.864,360.172 270.987 C 356.526 243.777,338.946 229.559,295.316 218.537 C 269.226 211.945,263.788 208.891,263.357 200.586 C 263.019 194.080,267.821 189.080,275.768 187.662 C 291.445 184.865,310.409 190.002,323.375 200.558 C 325.167 202.017,326.771 203.060,326.940 202.875 C 328.444 201.229,351.963 170.159,351.874 169.935 C 351.257 168.374,339.869 160.454,333.724 157.312 C 316.892 148.706,294.159 144.816,272.852 146.896 "
    stroke="none" fill="crimson" fill-rule="evenodd" />
</svg>