<?xml version="1.0" encoding="UTF-8" standalone="no"?>
<!-- Created with Inkscape (http://www.inkscape.org/) -->

<svg
   xmlns:dc="http://purl.org/dc/elements/1.1/"
   xmlns:cc="http://creativecommons.org/ns#"
   xmlns:rdf="http://www.w3.org/1999/02/22-rdf-syntax-ns#"
   xmlns:svg="http://www.w3.org/2000/svg"
   xmlns="http://www.w3.org/2000/svg"
   xmlns:sodipodi="http://sodipodi.sourceforge.net/DTD/sodipodi-0.dtd"
   xmlns:inkscape="http://www.inkscape.org/namespaces/inkscape"
   width="100mm"
   height="100mm"
   viewBox="0 0 100 100"
   version="1.1"
   id="svg8"
   inkscape:version="0.92.4 (5da689c313, 2019-01-14)"
   sodipodi:docname="lynx.svg">
  <defs
     id="defs2" />
  <sodipodi:namedview
     id="base"
     pagecolor="#ffffff"
     bordercolor="#666666"
     borderopacity="1.0"
     inkscape:pageopacity="0.0"
     inkscape:pageshadow="2"
     inkscape:zoom="2"
     inkscape:cx="238.21867"
     inkscape:cy="233.672"
     inkscape:document-units="mm"
     inkscape:current-layer="layer1"
     showgrid="false"
     showguides="false"
     inkscape:lockguides="true"
     inkscape:window-width="1920"
     inkscape:window-height="1017"
     inkscape:window-x="-8"
     inkscape:window-y="-8"
     inkscape:window-maximized="1" />
  <metadata
     id="metadata5">
    <rdf:RDF>
      <cc:Work
         rdf:about="">
        <dc:format>image/svg+xml</dc:format>
        <dc:type
           rdf:resource="http://purl.org/dc/dcmitype/StillImage" />
        <dc:title />
      </cc:Work>
    </rdf:RDF>
  </metadata>
  <g
     inkscape:label="Layer 1"
     inkscape:groupmode="layer"
     id="layer1"
     transform="translate(0,-197)">
    <path
       style="fill:#f0fefe;fill-opacity:1;stroke:none;stroke-width:0.26458332px;stroke-linecap:butt;stroke-linejoin:miter;stroke-opacity:1"
       d="m 50.916189,214.96215 c -1.158252,2.30299 0.07563,5.80078 0.859494,7.36434 0.395435,-0.57369 0.791014,-1.14599 1.061737,-2.93053 0.158003,2.03117 1.025077,3.61156 2.118587,5.048 0.900335,-1.68353 1.342489,-3.46908 1.473501,-5.32393 0.0045,1.09602 0.391154,1.94904 0.804099,2.78538 2.184727,-3.44424 0.828487,-6.31016 -0.499934,-8.50607 -0.454147,0.96357 -0.886922,1.71366 -0.736515,3.02146 -0.57094,-2.12308 -1.409034,-2.95889 -2.431439,-4.10577 -0.464413,1.36127 -1.021518,2.85317 -0.868704,4.46229 -0.520038,-0.79992 -1.089137,-1.46989 -1.780826,-1.81517 z"
       id="path913"
       inkscape:connector-curvature="0"
       sodipodi:nodetypes="ccccccccccc" />
    <path
       style="fill:#9b88a4;fill-opacity:1;stroke:#815f7b;stroke-width:0.29552996px;stroke-linecap:butt;stroke-linejoin:miter;stroke-opacity:1"
       d="m 39.029546,263.30647 c -2.314622,-1.68335 -5.261537,-29.86733 -5.261537,-29.86733 l 32.226838,-4.22269 c -0.907654,10.43872 -0.790031,22.45896 -0.415599,34.48518 -1.729031,-8.75257 -1.990759,6.07521 -4.206767,7.32535 -0.477207,0.26922 -1.445943,-10.72918 -1.500781,-10.01225 -0.308077,4.02765 -2.066879,9.67949 -2.107194,7.91381 -0.199076,-8.71885 -10.531563,-4.055 -13.809505,0.38835 -0.342632,0.46445 1.287376,-12.87027 1.147334,-11.87182 0,0 -1.311818,9.24801 -4.429688,13.82199 0,0 1.422807,-11.17387 1.269847,-10.39801 -0.233849,1.18615 -3.468152,10.07635 -4.289832,12.15863 -0.346446,0.87796 -0.638531,-7.59241 1.376884,-9.72121 z"
       id="path6154"
       inkscape:connector-curvature="0"
       sodipodi:nodetypes="ccccssssssssc" />
    <path
       style="fill:#3f3f3f;fill-opacity:1;stroke:#000000;stroke-width:0.36768147px;stroke-linecap:butt;stroke-linejoin:miter;stroke-opacity:1"
       d="m 46.894245,249.527 c -3.883408,2.51466 -5.315943,6.22033 -6.78993,9.57829 -7.978673,0.93864 -16.628024,-18.93303 -10.488259,-16.83053 -1.413778,-1.74106 -4.666974,-2.68572 -3.391021,3.67737 -20.0051094,7.75742 -24.6256314,25.29017 -25.0890424,36.91859 1.858657,-3.27852 5.6173,-7.9305 10.3346044,-8.64466 -2.2904524,-7.37118 9.077245,-10.39379 7.344719,5.84976 0.808674,-2.25426 1.852736,-4.3614 2.014925,-7.01971 2.143469,-0.67079 3.141568,-0.65433 4.484829,-0.84498 -4.955942,-8.13598 10.740849,-8.64602 5.849777,0.45497 3.695652,-2.2949 3.794965,-9.04335 7.864699,-9.35963 3.172534,-0.78618 3.617847,-11.95008 11.24457,-12.08954 z"
       id="path6092"
       inkscape:connector-curvature="0"
       sodipodi:nodetypes="ccccccccccccc" />
    <path
       style="fill:#3f3f3f;fill-opacity:1;stroke:#000000;stroke-width:0.36768147px;stroke-linecap:butt;stroke-linejoin:miter;stroke-opacity:1"
       d="m 53.653985,249.527 c 3.883412,2.51466 5.315947,6.22033 6.789929,9.57829 7.978677,0.93864 16.628028,-18.93303 10.488261,-16.83053 1.413779,-1.74106 4.666975,-2.68572 3.391023,3.67737 20.00511,7.75742 24.625631,25.29017 25.089043,36.91859 -1.85866,-3.27852 -5.617302,-7.9305 -10.334606,-8.64466 2.290453,-7.37118 -9.077246,-10.39379 -7.34472,5.84976 -0.808672,-2.25426 -1.852736,-4.3614 -2.014925,-7.01971 -2.143468,-0.67079 -3.141566,-0.65433 -4.484827,-0.84498 4.955942,-8.13598 -10.74085,-8.64602 -5.849777,0.45497 -3.695653,-2.2949 -3.794967,-9.04335 -7.864701,-9.35963 -3.172533,-0.78618 -3.617847,-11.95008 -11.244569,-12.08954 z"
       id="path6092-8"
       inkscape:connector-curvature="0"
       sodipodi:nodetypes="ccccccccccccc" />
    <path
       id="path6094"
       style="fill:#111111;fill-opacity:1;stroke:#000000;stroke-width:0.36768147px;stroke-linecap:butt;stroke-linejoin:miter;stroke-opacity:1"
       d="m 1.1359956,282.87072 c 3.792061,-10.72179 5.961672,-22.22583 16.2580014,-29.81164 -3.770812,4.29722 -3.444186,9.77089 -2.711652,11.2143 0.497506,-11.78525 10.259634,-16.10314 11.995609,-16.68356 3.372411,10.75634 10.810225,12.68033 13.426364,11.51547 m 0,0 c -7.978676,0.93864 -16.628027,-18.93303 -10.488262,-16.83053 -1.413778,-1.74106 -4.666974,-2.68572 -3.391021,3.67737 C 6.2199256,253.70955 1.5994036,271.2423 1.1359926,282.87072"
       inkscape:connector-curvature="0" />
    <path
       id="path6094-4"
       style="fill:#111111;fill-opacity:1;stroke:#000000;stroke-width:0.36768147px;stroke-linecap:butt;stroke-linejoin:miter;stroke-opacity:1"
       d="m 99.412236,282.87072 c -3.79206,-10.72179 -5.961671,-22.22583 -16.258,-29.81164 3.770812,4.29722 3.444186,9.77089 2.711652,11.2143 -0.497507,-11.78525 -10.259634,-16.10314 -11.99561,-16.68356 -3.37241,10.75634 -10.810226,12.68033 -13.426364,11.51547 m 0,0 c 7.978677,0.93864 16.628028,-18.93303 10.488261,-16.83053 1.413779,-1.74106 4.666975,-2.68572 3.391023,3.67737 20.00511,7.75742 24.625631,25.29017 25.089043,36.91859"
       inkscape:connector-curvature="0" />
    <path
       style="fill:#dcc2e6;fill-opacity:1;stroke:#815f7b;stroke-width:0.29552996px;stroke-linecap:butt;stroke-linejoin:miter;stroke-opacity:1"
       d="m 48.29757,204.50989 c 15.933362,-2.7117 23.171722,13.4191 21.950702,25.25638 -7.238088,12.23096 -5.664883,36.09558 -2.023996,44.87793 -1.953255,-0.0129 -8.210152,-4.02439 -8.017675,-30.61845 0.108744,-15.02495 -21.043022,-16.0686 -20.752685,-6.54726 0.95333,31.26355 -2.495868,34.71256 -7.242233,38.2479 1.373717,-4.81595 1.730183,-9.97097 1.519384,-15.31509 0.265577,-9.79942 -6.497206,-20.2615 -6.545653,-32.82335 -0.16293,-11.45754 7.263114,-25.41251 21.112156,-23.07806 z"
       id="path6152"
       inkscape:connector-curvature="0"
       sodipodi:nodetypes="cccsscccc" />
    <path
       id="path5934-2"
       style="fill:#fff4eb;fill-opacity:1;stroke:#965f59;stroke-width:0.29552996px;stroke-linecap:butt;stroke-linejoin:miter;stroke-opacity:1"
       d="m 53.736782,243.55056 c -0.908708,4.1977 -0.167949,4.09901 0.239838,4.09057 6.367428,-0.56095 4.124829,6.29895 6.34449,9.56102 l -3.342818,1.25694 c -0.713592,-2.51345 -0.905706,-4.57993 -2.56778,-7.90637 l 1.525587,8.31652 -5.112333,3.35848 -1.194121,-0.18657 -3.768946,-2.20168 0.182202,-9.47332 c -1.662075,3.32644 -1.854189,5.3929 -2.567781,7.90637 l -3.342818,-1.25695 c 2.219662,-3.26206 -0.02295,-10.15929 6.34449,-9.59833 2.460183,0.23283 2.71583,0.0326 1.807122,-4.16522"
       inkscape:connector-curvature="0"
       sodipodi:nodetypes="cccccccccccccc" />
    <path
       style="fill:#2d2d2d;fill-opacity:1;stroke:#000000;stroke-width:0.29552996px;stroke-linecap:butt;stroke-linejoin:miter;stroke-opacity:1"
       d="m 48.705722,246.36178 -0.335849,0.6717 c 0.189125,1.79435 5.231539,1.66762 5.473488,0.21771 l -0.323837,-0.66552 c -0.251592,1.25187 -4.611924,1.42886 -4.813802,-0.22389 z"
       id="path5966"
       inkscape:connector-curvature="0"
       sodipodi:nodetypes="ccccc" />
    <path
       style="fill:#fff4eb;fill-opacity:1;stroke:#965f59;stroke-width:0.29552996px;stroke-linecap:butt;stroke-linejoin:miter;stroke-opacity:1"
       d="m 36.877448,227.40823 -0.316639,5.85782 c -5.829266,-0.71187 -8.83116,-1.37399 -12.7639,-1.58546 -1.645369,-0.0885 8.541561,6.98656 14.399869,7.75994 3.56864,5.54283 9.936355,6.91508 14.195993,7.49379 14.007145,-2.54673 10.855399,-7.86203 11.557333,-9.92137 4.520666,-11.94699 3.187755,-13.56774 2.42757,-14.88205 -4.412343,-10.18945 -31.654561,-11.00563 -29.500226,5.27733 z"
       id="path5102"
       inkscape:connector-curvature="0"
       sodipodi:nodetypes="ccsccccc" />
    <path
       style="fill:#f0d2fe;fill-opacity:1;stroke:none;stroke-width:0.29552996px;stroke-linecap:butt;stroke-linejoin:miter;stroke-opacity:1"
       d="m 35.621446,221.56092 7.915983,-3.64135 1.266552,-2.48036 3.271942,3.958 6.016145,-2.32201 6.649424,2.1637 5.382869,-2.42757 -11.003707,-10.55541 c -1.226886,0.0225 -4.868959,-0.62072 -7.378914,-0.63437 l -9.798271,7.0207 z"
       id="path5883"
       inkscape:connector-curvature="0"
       sodipodi:nodetypes="ccccccccccc" />
    <path
       style="fill:#fffffe;fill-opacity:1;stroke:none;stroke-width:0.29552996px;stroke-linecap:butt;stroke-linejoin:miter;stroke-opacity:1"
       d="m 49.553573,233.64603 c 0.0029,1.71236 -1.155376,2.45715 -2.16634,3.32466 -2.165557,-0.059 -4.376622,-0.0528 -6.06628,-0.7916 -1.416132,-1.00599 -2.018097,-2.32524 -2.97113,-3.50941 l 3.060844,-1.42488 c 6.089878,0.5232 4.522569,0.25977 8.142906,2.40123 z"
       id="path5860"
       inkscape:connector-curvature="0"
       sodipodi:nodetypes="cccccc" />
    <path
       style="fill:#ffffff;fill-opacity:1;stroke:#965f59;stroke-width:0.29552996px;stroke-linecap:butt;stroke-linejoin:miter;stroke-opacity:1"
       d="m 49.593153,241.21893 c 0.631201,0.59125 5.444765,1.28929 5.963374,0.31665 0.822994,1.95873 -6.804055,1.2162 -5.963374,-0.31665 z"
       id="path5169"
       inkscape:connector-curvature="0"
       sodipodi:nodetypes="ccc" />
    <path
       style="fill:none;stroke:#965f59;stroke-width:0.29552996px;stroke-linecap:butt;stroke-linejoin:miter;stroke-opacity:1"
       d="m 53.93375,238.29003 c -0.04215,0.38434 0.185427,0.70126 -0.369413,1.21378"
       id="path5171"
       inkscape:connector-curvature="0"
       inkscape:transform-center-x="0.26386784"
       inkscape:transform-center-y="-0.052771929"
       sodipodi:nodetypes="cc" />
    <ellipse
       style="fill:#c43127;fill-opacity:1;stroke:#810000;stroke-width:0.29599535;stroke-linecap:round;stroke-linejoin:round;stroke-miterlimit:4;stroke-dasharray:none;stroke-opacity:1"
       id="path5739"
       cx="44.853558"
       cy="233.67049"
       rx="3.0038066"
       ry="3.9562287" />
    <ellipse
       style="fill:#840000;fill-opacity:1;stroke:none;stroke-width:0.36487848;stroke-linecap:round;stroke-linejoin:round;stroke-miterlimit:4;stroke-dasharray:none;stroke-opacity:1"
       id="path5743"
       cx="44.909531"
       cy="233.85706"
       rx="0.80992979"
       ry="1.3376619" />
    <ellipse
       style="fill:#ffffec;fill-opacity:0.49246234;stroke:none;stroke-width:0.29599535;stroke-linecap:round;stroke-linejoin:round;stroke-miterlimit:4;stroke-dasharray:none;stroke-opacity:1"
       id="path5747"
       cx="44.760265"
       cy="235.65778"
       rx="2.0581551"
       ry="1.7415158" />
    <ellipse
       style="fill:#ffffff;fill-opacity:1;stroke:none;stroke-width:0.29599535;stroke-linecap:round;stroke-linejoin:round;stroke-miterlimit:4;stroke-dasharray:none;stroke-opacity:1"
       id="path5749"
       cx="-11.08952"
       cy="236.64726"
       rx="1.7151293"
       ry="1.0554641"
       transform="rotate(-13.351689)" />
    <path
       style="fill:#fff4eb;fill-opacity:1;stroke:none;stroke-width:0.3077535px;stroke-linecap:butt;stroke-linejoin:miter;stroke-opacity:1"
       d="m 47.40589,236.93338 c -2.097098,-0.12162 -4.154764,0.014 -6.084937,-0.75429 0,0 0.07981,1.65123 0.135787,1.78184 0.05597,0.1306 5.616102,0.59705 5.616102,0.59705 z"
       id="path5163-5"
       inkscape:connector-curvature="0"
       sodipodi:nodetypes="cc" />
    <path
       style="fill:none;stroke:#965f59;stroke-width:0.3077535px;stroke-linecap:butt;stroke-linejoin:miter;stroke-opacity:1"
       d="m 47.387233,236.97069 c -2.097099,-0.12161 -4.136107,-0.0234 -6.06628,-0.7916"
       id="path5163"
       inkscape:connector-curvature="0"
       sodipodi:nodetypes="cc" />
    <path
       style="fill:#fffffe;fill-opacity:1;stroke:none;stroke-width:0.29552996px;stroke-linecap:butt;stroke-linejoin:miter;stroke-opacity:1"
       d="m 56.466864,233.85708 c -0.246584,1.73227 0.171736,2.45573 0.633277,3.11361 1.891247,0.21235 3.587501,-0.0332 4.907907,-1.16101 0.83911,-1.20337 1.549682,-2.45145 1.820678,-3.85244 -4.391451,-1.12808 -5.183898,1.01566 -7.361862,1.89984 z"
       id="path5862"
       inkscape:connector-curvature="0"
       sodipodi:nodetypes="ccccc" />
    <ellipse
       style="fill:#c43127;fill-opacity:1;stroke:#810000;stroke-width:0.23910795;stroke-linecap:round;stroke-linejoin:round;stroke-miterlimit:4;stroke-dasharray:none;stroke-opacity:1"
       id="path5739-6"
       cx="58.930393"
       cy="234.40189"
       rx="2.0620267"
       ry="3.7607751"
       inkscape:transform-center-y="-0.485112"
       inkscape:transform-center-x="-1.3839561e-06" />
    <ellipse
       style="fill:#840000;fill-opacity:1;stroke:none;stroke-width:0.36487848;stroke-linecap:round;stroke-linejoin:round;stroke-miterlimit:4;stroke-dasharray:none;stroke-opacity:1"
       id="path5743-9"
       cx="58.837093"
       cy="234.1407"
       rx="0.80992979"
       ry="1.3376619" />
    <ellipse
       style="fill:#ffffec;fill-opacity:0.44723618;stroke:none;stroke-width:0.22840334;stroke-linecap:round;stroke-linejoin:round;stroke-miterlimit:4;stroke-dasharray:none;stroke-opacity:1"
       id="path5747-2"
       cx="58.89307"
       cy="236.17442"
       rx="1.4984108"
       ry="1.4243271" />
    <path
       style="fill:#fff4eb;fill-opacity:1;stroke:none;stroke-width:0.29552996px;stroke-linecap:butt;stroke-linejoin:miter;stroke-opacity:1"
       d="m 57.100141,236.97069 c 1.69046,0.0918 4.134286,-0.091 4.907908,-1.16101 l 0.803231,1.5029 c -1.361067,1.74295 -3.540652,1.6081 -5.728051,1.45534 z"
       id="path5161-6"
       inkscape:connector-curvature="0"
       sodipodi:nodetypes="ccccc" />
    <path
       style="fill:none;stroke:#965f59;stroke-width:0.29552996px;stroke-linecap:butt;stroke-linejoin:miter;stroke-opacity:1"
       d="m 57.100141,236.97069 c 1.69046,0.0918 4.134286,-0.091 4.907908,-1.16101"
       id="path5161"
       inkscape:connector-curvature="0"
       sodipodi:nodetypes="cc" />
    <ellipse
       style="fill:#ffffff;fill-opacity:1;stroke:none;stroke-width:0.29599535;stroke-linecap:round;stroke-linejoin:round;stroke-miterlimit:4;stroke-dasharray:none;stroke-opacity:1"
       id="path5749-2"
       ry="1.0554641"
       rx="1.7151293"
       cy="232.70477"
       cx="-59.29837"
       transform="rotate(-28.446815)" />
    <path
       style="fill:#fff4eb;fill-opacity:1;stroke:none;stroke-width:0.29552996px;stroke-linecap:butt;stroke-linejoin:miter;stroke-opacity:1"
       d="m 40.664059,231.4166 7.425944,1.26876 3.582363,2.38824 4.794498,-1.21652 2.66876,-1.65683 4.254059,-0.59706 c -2.031425,-1.55442 -0.802534,-3.7095 -0.820959,-5.63477 -6.201153,1.12113 -7.100836,5.55607 -21.158337,-0.0373 z"
       id="path5751"
       inkscape:connector-curvature="0"
       sodipodi:nodetypes="ccccccccc" />
    <path
       style="fill:#241428;fill-opacity:1;stroke:#241428;stroke-width:0.29599535;stroke-linecap:butt;stroke-linejoin:miter;stroke-miterlimit:4;stroke-dasharray:none;stroke-opacity:1"
       d="m 49.553573,233.64603 c -3.243384,-1.52347 -5.383688,-2.22589 -9.710268,-1.31934 -0.333973,0 0.263972,3.11363 0.369416,2.84975 -1.108371,-1.52609 -3.502663,-3.7891 -2.480345,-3.16644 4.448133,-2.08639 8.996064,-1.1009 11.821197,1.63603 z"
       id="path5165"
       inkscape:connector-curvature="0"
       sodipodi:nodetypes="ccccc" />
    <path
       style="fill:#241428;fill-opacity:1;stroke:#241428;stroke-width:0.29552996px;stroke-linecap:butt;stroke-linejoin:miter;stroke-opacity:1"
       d="m 56.466864,233.85708 c 2.110928,-2.04056 5.224548,-2.86735 8.074301,-2.48034 0,0 -1.952611,3.79966 -1.899838,3.32471 0.580509,-1.05546 0.158321,-2.48034 0.158321,-2.48034 -2.503459,-0.62499 -4.223632,0.29375 -6.332784,1.63597 z"
       id="path5167"
       inkscape:connector-curvature="0"
       sodipodi:nodetypes="ccccc" />
    <path
       style="fill:#b190c2;fill-opacity:1;stroke:#815f7b;stroke-width:0.29552996px;stroke-linecap:butt;stroke-linejoin:miter;stroke-opacity:1"
       d="m 64.171752,216.01974 c -1.847289,8.96623 1.347369,16.10304 1.794289,15.04035 2.195814,-5.22119 2.114869,-7.31973 0.369412,-10.0269"
       id="path5117"
       inkscape:connector-curvature="0"
       sodipodi:nodetypes="csc" />
    <path
       style="fill:#f0d2fe;fill-opacity:1;stroke:#815f7b;stroke-width:0.29552996px;stroke-linecap:butt;stroke-linejoin:miter;stroke-opacity:1"
       d="m 63.063514,217.18074 c 0.846213,3.2017 0.49033,7.93387 -0.791598,12.66558 2.175836,-3.52065 2.902527,-8.81313 2.163702,-12.56004"
       id="path5119"
       inkscape:connector-curvature="0"
       sodipodi:nodetypes="ccc" />
    <path
       style="fill:#f0d2fe;fill-opacity:1;stroke:#815f7b;stroke-width:0.29552996px;stroke-linecap:butt;stroke-linejoin:miter;stroke-opacity:1"
       d="m 62.799648,216.07251 c 0.839263,2.78397 -0.128948,6.75017 -2.058154,9.39362 0.522845,-2.33961 0.390046,-4.15149 -2e-6,-6.22723"
       id="path5121"
       inkscape:connector-curvature="0"
       sodipodi:nodetypes="ccc" />
    <path
       style="fill:#f0d2fe;fill-opacity:1;stroke:#815f7b;stroke-width:0.29552996px;stroke-linecap:butt;stroke-linejoin:miter;stroke-opacity:1"
       d="m 58.525018,217.81403 c 0.778848,1.65091 0.912499,5.10585 -0.738825,8.23262 2.124808,-1.6372 4.049652,-4.13267 4.327404,-6.86052"
       id="path5123"
       inkscape:connector-curvature="0"
       sodipodi:nodetypes="ccc" />
    <path
       style="fill:#f0d2fe;fill-opacity:1;stroke:#815f7b;stroke-width:0.29552996px;stroke-linecap:butt;stroke-linejoin:miter;stroke-opacity:1"
       d="m 42.693056,217.28627 c -1.153444,6.36503 -4.025608,14.04076 -6.121691,15.14592 v 0 c -1.559323,-3.37701 -2.172361,-7.34545 -0.369413,-12.82389"
       id="path5125"
       inkscape:connector-curvature="0"
       inkscape:transform-center-x="0.31663884"
       inkscape:transform-center-y="-0.47496106"
       sodipodi:nodetypes="cccc" />
    <path
       style="fill:#f0d2fe;fill-opacity:1;stroke:#815f7b;stroke-width:0.29552996px;stroke-linecap:butt;stroke-linejoin:miter;stroke-opacity:1"
       d="m 49.711891,215.96696 c -0.499093,4.0482 0.360285,9.08816 1.26656,10.18523 -3.432877,-3.63879 -3.917568,-6.34715 -4.221859,-8.49649"
       id="path5127"
       inkscape:connector-curvature="0"
       sodipodi:nodetypes="ccc" />
    <path
       style="fill:#f0d2fe;fill-opacity:1;stroke:#815f7b;stroke-width:0.29552996px;stroke-linecap:butt;stroke-linejoin:miter;stroke-opacity:1"
       d="m 47.337098,216.49469 c -0.580506,1.16101 -0.895591,5.01494 -0.316639,7.81044 -1.904143,-2.93228 -2.311765,-6.11448 -2.216476,-8.86592"
       id="path5129"
       inkscape:connector-curvature="0"
       sodipodi:nodetypes="ccc" />
    <path
       style="fill:#f0d2fe;fill-opacity:1;stroke:#815f7b;stroke-width:0.29552996px;stroke-linecap:butt;stroke-linejoin:miter;stroke-opacity:1"
       d="m 45.595581,214.48929 c -1.762727,4.41664 -2.168876,10.67068 -1.635966,14.6182 -1.910312,-2.54141 -2.128659,-9.60749 -1.266556,-15.14591"
       id="path5131"
       inkscape:connector-curvature="0"
       sodipodi:nodetypes="ccc" />
    <path
       style="fill:#f0d0fd;fill-opacity:1;stroke:#815f7b;stroke-width:0.29552996px;stroke-linecap:butt;stroke-linejoin:miter;stroke-opacity:1"
       d="m 59.527709,215.59755 c 0.746786,-0.0247 -0.337217,9.23903 -5.752279,12.56002 -2.370229,-2.07034 -4.630457,-4.50437 -4.538498,-13.14053"
       id="path5133"
       inkscape:connector-curvature="0"
       sodipodi:nodetypes="ccc" />
    <path
       style="fill:#494949;fill-opacity:1;stroke:#000000;stroke-width:0.29552996px;stroke-linecap:butt;stroke-linejoin:miter;stroke-opacity:1"
       d="m 62.799649,197.86574 c 0.522912,4.77128 0.418932,9.09478 -2.955301,11.08238 l 3.905219,4.74959 c 3.849655,-4.99486 4.001888,-10.24039 -0.949918,-15.83197 z"
       id="path5885-8"
       inkscape:connector-curvature="0"
       sodipodi:nodetypes="cccc" />
    <path
       style="fill:#b894d2;fill-opacity:1;stroke:none;stroke-width:0.26458332px;stroke-linecap:butt;stroke-linejoin:miter;stroke-opacity:1"
       d="m 62.755856,213.60664 c -1.655271,-1.63838 -6.184849,-3.82321 -8.732565,-3.49764 l 2.084909,-2.9185 z"
       id="path879"
       inkscape:connector-curvature="0"
       sodipodi:nodetypes="cccc" />
    <path
       style="fill:#edcffb;fill-opacity:1;stroke:#815f7b;stroke-width:0.29552996px;stroke-linecap:butt;stroke-linejoin:miter;stroke-opacity:1"
       d="m 54.023293,210.109 c 1.445939,-0.56466 2.81292,-0.34978 3.589468,0.107 12.00317,8.39767 8.003181,28.88385 5.739606,35.79128 1.518617,-3.05571 3.109189,-4.21244 3.470414,-11.75465 -0.377728,8.93553 -3.450387,16.04176 -4.12345,18.30364 7.296084,-4.47112 7.43988,-11.28516 7.761694,-11.87442 2.796648,-10.97017 0.351004,-33.62069 -15.340371,-34.42593"
       id="path5866"
       inkscape:connector-curvature="0"
       sodipodi:nodetypes="ccccccc" />
    <path
       style="fill:#494949;fill-opacity:1;stroke:#000000;stroke-width:0.29552996px;stroke-linecap:butt;stroke-linejoin:miter;stroke-opacity:1"
       d="m 38.840062,199.25065 c -0.522911,4.77128 -0.418932,9.09478 2.955301,11.08238 l -3.905219,4.74959 c -3.849655,-4.99487 -4.001888,-10.24039 0.949918,-15.83197 z"
       id="path5885"
       inkscape:connector-curvature="0"
       sodipodi:nodetypes="cccc" />
    <path
       style="fill:#b894d2;fill-opacity:1;stroke:none;stroke-width:0.26458332px;stroke-linecap:butt;stroke-linejoin:miter;stroke-opacity:1"
       d="m 51.874242,210.17707 c -4.235422,-0.58947 -8.351906,-0.22744 -11.889086,4.76903 l 0.330729,-6.28386 6.376678,-2.05864 c 0.834334,1.74496 2.572471,1.56692 5.181679,3.57347 z"
       id="path877"
       inkscape:connector-curvature="0"
       sodipodi:nodetypes="ccccc" />
    <path
       style="fill:#b190c2;fill-opacity:1;stroke:none;stroke-width:0.26458332px;stroke-linecap:butt;stroke-linejoin:miter;stroke-opacity:1"
       d="m 36.571365,232.43219 c 1.49917,-1.39797 2.828536,-4.07793 4.143805,-7.9992 -0.724908,1.13238 -1.445403,2.47711 -2.385381,3.11034 1.092507,-1.73555 1.309331,-4.03431 1.543482,-6.26746 -0.778352,2.80102 -2.041666,5.67341 -3.905474,7.08598 l -0.25725,-6.2207 z"
       id="path964"
       inkscape:connector-curvature="0"
       sodipodi:nodetypes="ccccccc" />
    <path
       style="fill:#faccc5;fill-opacity:1;stroke:#d7a197;stroke-width:0.26458332px;stroke-linecap:butt;stroke-linejoin:miter;stroke-opacity:1"
       d="m 25.757358,232.66669 8.410252,1.58103 0.161426,2.63862"
       id="path1032"
       inkscape:connector-curvature="0" />
    <path
       style="fill:#edcffb;fill-opacity:1;stroke:#815f7b;stroke-width:0.29552996px;stroke-linecap:butt;stroke-linejoin:miter;stroke-opacity:1"
       d="m 51.874242,210.17707 c -0.898856,-0.71349 -3.070344,-1.2626 -5.48157,-0.47212 -13.429722,6.64371 -8.667244,28.49273 -6.403668,35.40017 -1.518617,-3.05571 -3.795242,-8.22321 -4.050921,-14.34054 0.377728,8.93554 4.030893,18.62765 4.703955,20.88954 -7.296083,-4.47113 -7.43988,-11.28517 -7.761693,-11.87443 -2.796649,-10.97018 -0.882753,-34.56668 14.861395,-34.15814"
       id="path5866-7"
       inkscape:connector-curvature="0"
       sodipodi:nodetypes="ccccccc" />
    <path
       style="fill:#863c56;fill-opacity:1;stroke:#71304f;stroke-width:0.29552996px;stroke-linecap:butt;stroke-linejoin:miter;stroke-opacity:1"
       d="m 46.074922,251.38082 -0.07464,2.7241 9.254443,0.0746 c 0.173113,-0.89559 0.113737,-1.79118 -0.335849,-2.68677 z"
       id="path5964"
       inkscape:connector-curvature="0"
       sodipodi:nodetypes="ccccc" />
    <path
       style="fill:none;stroke:#838383;stroke-width:0.29552996px;stroke-linecap:butt;stroke-linejoin:miter;stroke-opacity:1"
       d="m 51.057609,247.9739 c -0.738743,18.43427 -3.350397,15.74641 -3.456647,4.38017"
       id="path5968"
       inkscape:connector-curvature="0"
       sodipodi:nodetypes="cc" />
    <path
       style="fill:#965f59;fill-opacity:1;stroke:none;stroke-width:0.69622189;stroke-linecap:round;stroke-linejoin:round;stroke-miterlimit:4;stroke-dasharray:none;stroke-opacity:1"
       id="path5985"
       sodipodi:type="arc"
       sodipodi:cx="50.501236"
       sodipodi:cy="260.04736"
       sodipodi:rx="0.31438509"
       sodipodi:ry="0.40740117"
       sodipodi:start="0"
       sodipodi:end="6.1912804"
       d="m 50.815621,260.04736 a 0.31438509,0.40740117 0 0 1 -0.307162,0.4073 0.31438509,0.40740117 0 0 1 -0.321276,-0.38858 0.31438509,0.40740117 0 0 1 0.2924,-0.42515 0.31438509,0.40740117 0 0 1 0.334711,0.36904"
       sodipodi:open="true" />
    <path
       style="fill:#2d2d2d;fill-opacity:1;stroke:#000000;stroke-width:0.26458332px;stroke-linecap:butt;stroke-linejoin:miter;stroke-opacity:1"
       d="m 54.606502,247.46827 c -0.6611,1.04239 -1.919816,1.96627 -3.39098,2.57247 -1.795674,-0.34268 -2.700288,-1.58293 -3.648231,-2.71278 l -0.865283,-0.0468 c 1.052396,1.4442 1.93689,3.04028 4.186108,3.41436 l 0.771742,0.0234 c 1.841381,-0.72928 2.889735,-2.03453 3.811929,-3.20389 z"
       id="path998"
       inkscape:connector-curvature="0"
       sodipodi:nodetypes="cccccccc" />
    <path
       style="fill:#fff4eb;fill-opacity:1;stroke:#965f59;stroke-width:0.29552996px;stroke-linecap:butt;stroke-linejoin:miter;stroke-opacity:1"
       d="m 57.906371,259.14498 c 1.193459,-0.30051 1.809252,-1.11706 2.414739,-1.94283 0.424416,-5.46682 -0.55257,-7.14525 -0.846876,-10.66919 -0.850377,-1.09009 -0.916514,-1.80648 -1.264035,-2.65696 -0.191555,-0.23657 -0.618006,-0.45026 -0.965819,-0.2297 -0.364219,-0.51499 -1.29109,-0.21886 -1.175469,0.20812 -0.591621,-0.27124 -1.06077,0.23538 -0.988714,0.67664 -0.616726,0.0709 -0.990782,0.46695 -0.390143,1.20836 0.541138,0.95883 1.111691,2.01118 2.140284,2.24375 0.08838,3.77136 -2.627456,8.06914 1.076022,11.16185 z"
       id="path5952-4"
       inkscape:connector-curvature="0"
       sodipodi:nodetypes="cccccccccc" />
    <path
       style="fill:#242424;fill-opacity:1;stroke:#000000;stroke-width:0.29552996px;stroke-linecap:butt;stroke-linejoin:miter;stroke-opacity:1"
       d="m 59.717643,246.64305 c 0.159121,0.13115 0.233263,1.32834 0.200431,1.62814 -0.0843,1.45471 -2.409383,2.36179 -3.354147,1.67026 -0.0015,-0.41273 0.152586,-1.24693 0.148781,-1.60964 1.156531,0.7825 3.13159,-0.64371 3.004935,-1.68876 z"
       id="path5954-9"
       inkscape:connector-curvature="0"
       sodipodi:nodetypes="ccccc" />
    <path
       style="fill:#fff4eb;fill-opacity:1;stroke:#965f59;stroke-width:0.29552996px;stroke-linecap:butt;stroke-linejoin:miter;stroke-opacity:1"
       d="m 45.842024,260.67151 c -1.660725,6.69328 1.285964,11.69732 2.153227,13.9181 -2.502035,2.37987 -2.914356,6.84693 -4.371535,6.62874 -0.204947,0.28843 -0.827836,1.94326 -1.032784,3.55886 -0.327827,3.2964 0.05529,5.33636 3.79413,0.0859 1.771861,-3.34415 4.648052,-7.09168 5.23722,-9.98017 -0.140403,-2.78293 -0.680417,-5.62293 -1.303416,-8.4748 -0.206857,-3.38127 -2.372462,-4.52398 -4.476842,-5.73665 z"
       id="path6040"
       inkscape:connector-curvature="0"
       sodipodi:nodetypes="ccccccccc" />
    <path
       style="fill:#3e3e3e;fill-opacity:1;stroke:#000000;stroke-width:0.26458332px;stroke-linecap:butt;stroke-linejoin:miter;stroke-opacity:1"
       d="m 51.12142,262.9884 c 18.865948,11.94532 4.679549,26.48593 -15.369597,16.81368 5.605784,-2.03392 -0.967978,-1.18517 -3.902605,-2.91042 1.614767,1.65732 2.900353,9.11694 3.406511,4.29949 16.850415,9.81399 39.919519,-3.06108 16.38763,-19.71147 z"
       id="path1002"
       inkscape:connector-curvature="0"
       sodipodi:nodetypes="cccccc" />
    <path
       style="fill:#fff4eb;fill-opacity:1;stroke:#965f59;stroke-width:0.29552996px;stroke-linecap:butt;stroke-linejoin:miter;stroke-opacity:1"
       d="m 51.79237,266.4104 c -0.531522,3.01976 -0.187368,5.24602 -0.137015,7.64571 -0.222816,2.15613 0.131691,4.16657 -0.06948,5.13049 -0.737607,3.31229 2.091412,4.15641 2.717727,1.21858 -0.0042,-4.51695 0.146998,-5.38105 0.725527,-7.04561 1.030675,-3.45516 3.306348,-12.48227 1.201968,-13.69495 -6.059483,2.36704 -4.87837,4.56593 -4.438722,6.74578 z"
       id="path6040-9"
       inkscape:connector-curvature="0"
       sodipodi:nodetypes="cccccccc" />
    <path
       style="fill:#863c56;fill-opacity:1;stroke:#71304f;stroke-width:0.29552996px;stroke-linecap:butt;stroke-linejoin:miter;stroke-opacity:1"
       d="m 45.860699,259.83947 c -0.08061,-0.008 -0.08583,0.27342 -0.01867,0.83204 3.225643,2.45429 3.186819,3.20139 4.476842,5.73666 0.585807,0.22141 1.07478,0.15701 1.473504,0.002 0.56239,-2.83125 0.598191,-4.5624 4.438721,-6.74578 l -0.294991,-0.79501 c -3.940815,2.11375 -5.88521,3.96541 -10.075401,0.97023 z"
       id="path5964-9"
       inkscape:connector-curvature="0"
       sodipodi:nodetypes="cccccccc" />
    <path
       style="fill:none;stroke:#838383;stroke-width:0.29552996px;stroke-linecap:butt;stroke-linejoin:miter;stroke-opacity:1"
       d="m 51.057609,247.9739 c 0.404717,21.4984 6.848751,11.17112 7.296259,1.03089"
       id="path5968-4"
       inkscape:connector-curvature="0"
       sodipodi:nodetypes="cc" />
    <path
       style="fill:#2d2d2d;fill-opacity:1;stroke:#000000;stroke-width:0.26458332px;stroke-linecap:butt;stroke-linejoin:miter;stroke-opacity:1"
       d="m 54.941614,251.45658 c 0.226686,0.16411 0.239388,0.4122 0.20277,0.64214 -1.510065,-0.68296 -2.963302,-1.23197 -4.256268,-1.4032 l 0.327406,-0.65478 c 1.278517,0.38985 2.568133,0.75473 3.726092,1.41584 z"
       id="path1000"
       inkscape:connector-curvature="0"
       sodipodi:nodetypes="ccccc" />
    <path
       style="fill:#fff4eb;fill-opacity:1;stroke:#965f59;stroke-width:0.29552996px;stroke-linecap:butt;stroke-linejoin:miter;stroke-opacity:1"
       d="m 40.104315,259.10529 c -0.554053,-1.09895 -0.339856,-2.09898 -0.111949,-3.09725 3.855,-3.8994 5.763395,-4.25951 8.620065,-6.34377 1.380732,-0.0707 1.965612,-0.48964 2.836036,-0.78364 0.304239,-0.0103 0.744945,0.17244 0.805891,0.57974 0.627748,-0.0618 1.010626,0.83275 0.61213,1.02486 0.592365,0.26965 0.516426,0.95601 0.135683,1.19038 0.350131,0.51262 0.295564,1.05466 -0.658113,1.08591 -1.079079,0.21856 -2.248112,0.47609 -3.097251,-0.14926 -2.908925,2.4019 -4.380202,7.26833 -9.142492,6.49303 z"
       id="path5952"
       inkscape:connector-curvature="0"
       sodipodi:nodetypes="cccccccccc" />
    <path
       style="fill:#242424;fill-opacity:1;stroke:#000000;stroke-width:0.29552996px;stroke-linecap:butt;stroke-linejoin:miter;stroke-opacity:1"
       d="m 48.369875,249.55231 c -0.20328,-0.0345 -1.156897,0.6932 -1.362046,0.91426 -1.044564,1.01597 -0.208284,3.36746 0.932907,3.62902 0.313046,-0.26904 0.842792,-0.93159 1.11949,-1.16614 -1.348618,-0.36211 -1.5633,-2.78879 -0.690351,-3.37714 z"
       id="path5954"
       inkscape:connector-curvature="0"
       sodipodi:nodetypes="ccccc" />
    <path
       style="fill:#3e3e3e;fill-opacity:1;stroke:#000000;stroke-width:0.29552996px;stroke-linecap:butt;stroke-linejoin:miter;stroke-opacity:1"
       d="m 43.623714,281.21835 c -2.377811,4.73196 -1.600711,10.98764 2.761347,3.64475 l 1.381938,-2.42182 c -1.597717,1.66831 -3.796829,-0.29859 -2.843293,-2.54352 -0.188234,0.65948 -0.870901,1.14282 -1.299992,1.32059 z"
       id="path6057"
       inkscape:connector-curvature="0"
       sodipodi:nodetypes="ccccc" />
    <path
       style="fill:#3e3e3e;fill-opacity:1;stroke:#000000;stroke-width:0.29552996px;stroke-linecap:butt;stroke-linejoin:miter;stroke-opacity:1"
       d="m 51.123997,278.7165 c -0.917566,4.19068 0.54847,7.01861 1.090476,7.02417 1.752399,0.018 2.008378,-5.29899 2.114936,-6.69683 l 0.02883,-2.02743 c -0.206335,3.00776 -2.734502,3.36891 -2.748981,-0.15761 z"
       id="path6057-2"
       inkscape:connector-curvature="0"
       sodipodi:nodetypes="cscccc" />
    <path
       style="fill:#b490cf;fill-opacity:0.94117647;stroke:none;stroke-width:0.26458332px;stroke-linecap:butt;stroke-linejoin:miter;stroke-opacity:1"
       d="m 48.405057,204.75794 -3.255975,0.0449 3.648231,0.88867 -1.309622,0.56127 1.987817,0.30402 -2.782945,0.0468 3.040192,0.65481 -1.847501,0.14032 3.975635,1.12253 -0.53788,0.21048 1.520095,0.35079 1.379778,-0.72497 -1.333005,-0.0935 1.099145,-1.26284 -2.361996,0.84189 1.356394,-1.61364 -2.221677,1.21608 1.637025,-1.98782 -2.291837,1.26285 1.309622,-1.6838 -2.174907,0.79513 2.081363,-1.47332 z"
       id="path875"
       inkscape:connector-curvature="0" />
    <path
       style="fill:#f0fefe;fill-opacity:1;stroke:none;stroke-width:0.26458332px;stroke-linecap:butt;stroke-linejoin:miter;stroke-opacity:1"
       d="m 30.34059,216.34983 c -0.930544,2.62102 -1.827221,5.25797 -1.719792,8.36745 0.579338,-1.35528 1.211333,-2.6405 1.686719,-4.13411 0.261415,2.16127 0.719377,3.09413 1.091406,4.56406 -0.108153,-3.11384 0.717641,-5.9942 1.5875,-8.86354 -0.831253,1.13134 -1.787769,2.18163 -2.116667,3.63802 -0.223603,-1.03549 -0.510694,-1.86239 -0.529166,-3.57188 z"
       id="path881"
       inkscape:connector-curvature="0"
       sodipodi:nodetypes="ccccccc" />
    <path
       style="fill:#f0fefe;fill-opacity:1;stroke:none;stroke-width:0.26458332px;stroke-linecap:butt;stroke-linejoin:miter;stroke-opacity:1"
       d="m 35.654519,217.32758 c -0.930544,2.62102 -1.827221,5.25797 -1.719792,8.36745 0.579338,-1.35528 1.211333,-2.6405 1.686719,-4.13411 0.261415,2.16127 0.719377,3.09413 1.091406,4.56406 -0.108153,-3.11384 0.717641,-5.9942 1.5875,-8.86354 -0.831252,1.13134 -1.787769,2.18163 -2.116667,3.63802 -0.223603,-1.03549 -0.510694,-1.86239 -0.529166,-3.57188 z"
       id="path881-9"
       inkscape:connector-curvature="0"
       sodipodi:nodetypes="ccccccc" />
    <path
       style="fill:#f0fefe;fill-opacity:1;stroke:none;stroke-width:0.26458332px;stroke-linecap:butt;stroke-linejoin:miter;stroke-opacity:1"
       d="m 67.544881,217.60098 c 0.930544,2.62102 1.827221,5.25797 1.719792,8.36745 -0.579338,-1.35528 -1.211333,-2.6405 -1.686719,-4.13411 -0.261415,2.16127 -0.719377,3.09413 -1.091406,4.56406 0.108153,-3.11384 -0.717641,-5.9942 -1.5875,-8.86354 0.831252,1.13134 1.787769,2.18163 2.116667,3.63802 0.223603,-1.03549 0.510694,-1.86239 0.529166,-3.57188 z"
       id="path881-9-2"
       inkscape:connector-curvature="0"
       sodipodi:nodetypes="ccccccc" />
    <path
       style="fill:#f0fefe;fill-opacity:1;stroke:none;stroke-width:0.26458332px;stroke-linecap:butt;stroke-linejoin:miter;stroke-opacity:1"
       d="m 56.843757,215.40082 c 2.276934,3.65732 0.537177,6.65391 -1.133406,8.97101 1.340868,-2.3171 1.315396,-5.6721 1.133406,-8.97101 z"
       id="path915"
       inkscape:connector-curvature="0"
       sodipodi:nodetypes="ccc" />
    <path
       style="fill:#f0fefe;fill-opacity:1;stroke:none;stroke-width:0.26458332px;stroke-linecap:butt;stroke-linejoin:miter;stroke-opacity:1"
       d="m 44.850755,213.87234 c -2.564392,2.93506 -1.821706,7.73129 -1.396754,10.37445 -0.424952,-2.64316 0.04864,-7.35808 1.396754,-10.37445 z"
       id="path915-9-9"
       inkscape:connector-curvature="0"
       sodipodi:nodetypes="ccc" />
    <path
       style="fill:#f0fefe;fill-opacity:1;stroke:none;stroke-width:0.26458332px;stroke-linecap:butt;stroke-linejoin:miter;stroke-opacity:1"
       d="m 52.243469,214.9055 c -2.814805,3.5165 -0.507727,7.97833 0.709949,10.44395 -0.94586,-2.50445 -1.426442,-7.21866 -0.709949,-10.44395 z"
       id="path915-9-9-6"
       inkscape:connector-curvature="0"
       sodipodi:nodetypes="ccc" />
    <path
       style="fill:#f0fefe;fill-opacity:1;stroke:none;stroke-width:0.26458332px;stroke-linecap:butt;stroke-linejoin:miter;stroke-opacity:1"
       d="m 53.765108,213.30486 c 2.640736,3.12815 1.463218,5.89323 0.586385,9.36788 0.150243,-3.24314 0.03823,-6.259 -0.586385,-9.36788 z"
       id="path915-6"
       inkscape:connector-curvature="0"
       sodipodi:nodetypes="ccc" />
    <path
       style="fill:none;stroke:#815f7b;stroke-width:0.26458332px;stroke-linecap:butt;stroke-linejoin:miter;stroke-opacity:1"
       d="m 35.586458,251.35938 c 0.99546,4.68012 0.956507,9.19473 0.396875,13.62604"
       id="path981"
       inkscape:connector-curvature="0"
       sodipodi:nodetypes="cc" />
    <path
       style="fill:none;stroke:#815f7b;stroke-width:0.26458332px;stroke-linecap:butt;stroke-linejoin:miter;stroke-opacity:1"
       d="m 64.24841,253.89685 c -0.686293,4.73534 -0.351259,9.23767 0.497868,13.62272"
       id="path981-9"
       inkscape:connector-curvature="0"
       sodipodi:nodetypes="cc" />
    <path
       style="fill:#f8c9c2;fill-opacity:1;stroke:none;stroke-width:0.26499999;stroke-linecap:round;stroke-linejoin:round;stroke-miterlimit:4;stroke-dasharray:none;stroke-opacity:1"
       id="path1015"
       sodipodi:type="arc"
       sodipodi:cx="44.860542"
       sodipodi:cy="238.61807"
       sodipodi:rx="2.2216778"
       sodipodi:ry="0.65481037"
       sodipodi:start="0"
       sodipodi:end="6.1912763"
       sodipodi:open="true"
       d="m 47.08222,238.61807 a 2.2216778,0.65481037 0 0 1 -2.170634,0.65464 2.2216778,0.65481037 0 0 1 -2.270376,-0.62456 2.2216778,0.65481037 0 0 1 2.066309,-0.68333 2.2216778,0.65481037 0 0 1 2.365324,0.59315" />
    <path
       style="fill:#f8c9c2;fill-opacity:1;stroke:none;stroke-width:0.26499999;stroke-linecap:round;stroke-linejoin:round;stroke-miterlimit:4;stroke-dasharray:none;stroke-opacity:1"
       id="path1015-8"
       sodipodi:type="arc"
       sodipodi:cx="59.506519"
       sodipodi:cy="238.52344"
       sodipodi:rx="2.2216778"
       sodipodi:ry="0.65481037"
       sodipodi:start="0"
       sodipodi:end="6.1912763"
       sodipodi:open="true"
       d="m 61.728197,238.52344 a 2.2216778,0.65481037 0 0 1 -2.170634,0.65464 2.2216778,0.65481037 0 0 1 -2.270376,-0.62456 2.2216778,0.65481037 0 0 1 2.066309,-0.68334 2.2216778,0.65481037 0 0 1 2.365324,0.59316" />
  </g>
</svg>
